#!OML:ASF F:\VICON\USERDATA\INSTALL\Justin_Nancy\Justin_Nancy.ASF
:FULLY-SPECIFIED
:DEGREES
454
root 0.657269 17.2606 22.4893 -1.15818 -5.57551 3.44557
lowerback 6.7672 2.27014 -1.61066
upperback 0.321817 2.90985 0.308234
thorax -3.55559 1.4736 0.936504
lowerneck -16.7111 -4.1332 -9.86052
upperneck 19.8974 -4.70269 6.92682
head 9.4398 -2.19003 3.42066
rclavicle -7.65321e-015 9.93923e-015
rhumerus -29.0851 -17.5207 -76.8754
rradius 36.8253
rwrist 2.49741
rhand -17.2801 12.6967
rfingers 7.12502
rthumb 8.96508 -17.0928
lclavicle -7.65321e-015 9.93923e-015
lhumerus -38.0666 20.5818 78.1164
lradius 23.1442
lwrist -10.1512
lhand -12.743 28.5238
lfingers 7.12502
lthumb 13.3409 58.0768
rfemur -5.61559 -0.510761 18.3525
rtibia 64.0666
rfoot 11.4352 -0.444703
rtoes 0.298006
lfemur -19.9609 -1.87023 -26.8475
ltibia 30.4009
lfoot -6.75963 -2.23407
ltoes 2.42508
455
root 0.657238 17.2528 22.6685 -1.1436 -5.16784 3.62399
lowerback 6.60649 2.08538 -1.81078
upperback 0.428493 2.6518 0.29675
thorax -3.35588 1.34666 1.07091
lowerneck -16.8863 -3.99043 -9.96041
upperneck 19.9757 -4.4928 7.05924
head 9.48496 -2.08284 3.51314
rclavicle -4.5472e-015 -2.38542e-015
rhumerus -29.1478 -17.8598 -76.8433
rradius 36.3156
rwrist 3.18445
rhand -16.894 11.0288
rfingers 7.12502
rthumb 9.33763 -18.7444
lclavicle -4.5472e-015 -2.38542e-015
lhumerus -37.4528 20.5786 78.2748
lradius 22.93
lwrist -10.6784
lhand -12.5343 27.978
lfingers 7.12502
lthumb 13.5421 57.5176
rfemur -6.87307 -1.41494 18.0686
rtibia 65.9796
rfoot 9.508 -1.74416
rtoes -2.72229
lfemur -19.2279 -2.2434 -27.1926
ltibia 30.3299
lfoot -7.26085 -2.23954
ltoes 3.81055
456
root 0.654372 17.2586 22.8392 -1.12641 -4.86012 3.66951
lowerback 6.5337 1.92893 -1.91383
upperback 0.560333 2.43954 0.339085
thorax -3.17776 1.24071 1.19809
lowerneck -17.0581 -3.85973 -10.0014
upperneck 19.9694 -4.27604 7.0397
head 9.49412 -1.98398 3.54178
rclavicle -1.72943e-014 -1.27222e-014
rhumerus -28.8289 -18.438 -76.8113
rradius 35.3769
rwrist 4.22942
rhand -17.1461 10.6859
rfingers 7.12502
rthumb 9.09441 -19.0981
lclavicle -1.72943e-014 -1.27222e-014
lhumerus -36.7703 20.7987 78.3877
lradius 22.7397
lwrist -11.4895
lhand -12.305 27.3454
lfingers 7.12502
lthumb 13.7631 56.8702
rfemur -8.59555 -2.06598 17.9951
rtibia 67.7974
rfoot 7.95513 -3.29783
rtoes -1.35428
lfemur -18.5195 -2.58451 -27.3794
ltibia 30.2217
lfoot -7.85497 -1.98574
ltoes 3.19313
457
root 0.655097 17.2639 23.0171 -1.2871 -4.64999 3.84004
lowerback 6.73629 1.83404 -2.06856
upperback 0.519582 2.29667 0.328751
thorax -3.33377 1.17321 1.28036
lowerneck -16.7125 -3.77559 -9.94858
upperneck 19.914 -4.15729 6.8334
head 9.39423 -1.95306 3.47735
rclavicle 2.46741e-014 -3.97569e-015
rhumerus -29.2357 -18.8673 -76.6132
rradius 34.7316
rwrist 4.78812
rhand -17.1198 11.8338
rfingers 7.12502
rthumb 9.11971 -17.949
lclavicle 2.46741e-014 -3.97569e-015
lhumerus -36.5082 20.6707 78.541
lradius 22.7446
lwrist -11.6492
lhand -12.1546 27.3483
lfingers 7.12502
lthumb 13.908 56.8632
rfemur -10.0024 -2.67472 17.7102
rtibia 69.3532
rfoot 5.73831 -4.38235
rtoes -2.00663
lfemur -17.6792 -2.89047 -27.7007
ltibia 30.2984
lfoot -8.56039 -1.58785
ltoes 2.45217
458
root 0.649034 17.2716 23.1995 -1.46686 -4.5766 3.83071
lowerback 6.87491 1.74543 -2.1313
upperback 0.428794 2.17139 0.364528
thorax -3.50424 1.11432 1.35893
lowerneck -16.2496 -3.72447 -9.8619
upperneck 19.9664 -4.12759 6.69931
head 9.31949 -1.95603 3.42336
rclavicle -4.02539e-015 -3.18055e-015
rhumerus -29.9838 -19.1379 -76.4666
rradius 34.3113
rwrist 5.27186
rhand -17.0144 12.3088
rfingers 7.12502
rthumb 9.22144 -17.4696
lclavicle -4.02539e-015 -3.18055e-015
lhumerus -36.4553 20.8695 78.3827
lradius 22.7575
lwrist -12.1054
lhand -11.9904 27.6628
lfingers 7.12502
lthumb 14.0663 57.1668
rfemur -11.3923 -3.06021 17.7344
rtibia 70.7004
rfoot 5.40659 -5.219
rtoes 2.92596
lfemur -16.7481 -2.99432 -27.7751
ltibia 30.2325
lfoot -9.08672 -1.34335
ltoes 2.27441
459
root 0.640436 17.2821 23.3741 -1.53616 -4.4886 3.61776
lowerback 6.83806 1.65082 -2.04448
upperback 0.479322 2.05734 0.47777
thorax -3.4277 1.05611 1.44062
lowerneck -16.174 -3.73273 -9.88415
upperneck 20.0681 -4.12829 6.62634
head 9.34019 -1.96831 3.40333
rclavicle 1.15295e-014 3.97569e-015
rhumerus -30.4286 -19.3562 -76.3748
rradius 33.8814
rwrist 5.84182
rhand -17.0667 11.7223
rfingers 7.12502
rthumb 9.17095 -18.0583
lclavicle 1.15295e-014 3.97569e-015
lhumerus -36.0212 21.2923 78.2943
lradius 22.7116
lwrist -12.8945
lhand -11.0458 29.1429
lfingers 7.12502
lthumb 14.9764 58.5814
rfemur -12.9391 -3.36521 18.077
rtibia 71.809
rfoot 4.92226 -6.01818
rtoes 5.31825
lfemur -15.9239 -3.04622 -27.6064
ltibia 30.0813
lfoot -9.49905 -1.21859
ltoes 1.85569
